<svg width="396" height="396" viewBox="0 0 396 396" fill="none" xmlns="http://www.w3.org/2000/svg">
<path d="M92.9946 303.005C66.1214 276.132 49.5 239.007 49.5 198C49.5 156.993 66.1214 119.868 92.9946 92.9945L57.9929 57.9927C22.1619 93.8237 0 143.324 0 198C0 252.676 22.1619 302.176 57.9929 338.007L92.9946 303.005Z" fill="#FBBC05"/>
<path d="M16.5 173.25H115.5V222.75H16.5V173.25Z" fill="#FBBC05"/>
<rect x="51.5625" y="49.8303" width="49.5" height="49.5" rx="24.75" fill="#4285F4"/>
<rect x="49.8299" y="294.855" width="49.5" height="49.5" rx="24.75" fill="#EA4335"/>
<path d="M198 264C161.549 264 132 234.451 132 198C132 161.549 161.549 132 198 132C234.451 132 264 161.549 264 198H313.5C313.5 134.211 261.789 82.5 198 82.5C134.211 82.5 82.5 134.211 82.5 198C82.5 261.789 134.211 313.5 198 313.5V264Z" fill="#4285F4"/>
<path d="M198 264H346.5V313.5H198V264Z" fill="#4285F4"/>
<path d="M173.25 198H222.75V297H173.25V198Z" fill="#4285F4"/>
<rect x="264" y="173.25" width="49.5" height="49.5" rx="24.75" fill="#EA4335"/>
<rect x="173.25" y="173.25" width="49.5" height="49.5" rx="24.75" fill="#FBBC05"/>
<path d="M198 346.5V396C307.352 396 396 307.352 396 198C396 88.6476 307.352 0 198 0V49.5C280.014 49.5 346.5 115.986 346.5 198C346.5 280.014 280.014 346.5 198 346.5Z" fill="#EA4335"/>
<rect x="173.25" width="49.5" height="49.5" rx="24.75" fill="#4285F4"/>
<rect x="173.25" y="346.5" width="49.5" height="49.5" rx="24.75" fill="#FBBC05"/>
</svg>
